<svg fill="none" height="600" viewBox="0 0 24 24" width="600" xmlns="http://www.w3.org/2000/svg"><path d="m6.89488 10.0845c0 .2881.03113.5217.08561.693.06226.1713.14009.3582.24904.5607.03892.0622.05448.1245.05448.179 0 .0779-.04669.1558-.14787.2336l-.4903.3271c-.07004.0467-.14009.07-.20235.07-.07783 0-.15565-.0389-.23348-.109-.10895-.1168-.20234-.2413-.28017-.3659-.07783-.1324-.15565-.2803-.24126-.4594-.60704.7163-1.36974 1.0745-2.28808 1.0745-.65374 0-1.17517-.1869-1.55652-.5606-.38135-.3738-.57591-.8721-.57591-1.495 0-.66187.23347-1.19913.70821-1.60402.47474-.4049 1.10513-.60735 1.90674-.60735.26461 0 .537.02336.82495.0623.28796.03893.5837.10122.895.1713v-.56841c0-.59177-.12452-1.00445-.36578-1.24583-.24904-.24138-.6693-.35818-1.26856-.35818-.27239 0-.55257.03115-.84052.10123-.28796.07008-.56813.15573-.84052.26474-.12453.0545-.21792.08565-.27239.10122-.05448.01557-.0934.02336-.12453.02336-.10895 0-.16343-.07787-.16343-.24138v-.38154c0-.12458.01556-.21802.05448-.27252.03891-.05451.10895-.10901.21791-.16352.27239-.14015.59926-.25695.98061-.35038.38134-.10123.78604-.14795 1.21408-.14795.92613 0 1.60322.21024 2.03904.6307.42804.42047.64596 1.05896.64596 1.91547v2.52276zm-3.15973 1.1836c.25682 0 .52143-.0467.80161-.1402.28017-.0934.52921-.2647.73934-.4983.12452-.148.21791-.3115.26461-.4983.0467-.18692.07783-.41272.07783-.67746v-.32703c-.2257-.05451-.46696-.10123-.716-.13237-.24905-.03115-.49031-.04672-.73157-.04672-.52143 0-.90278.10122-1.1596.31146-.25683.21023-.38135.50612-.38135.89542 0 .366.09339.6385.28796.8254.18678.1946.45917.2881.81717.2881zm6.24942.8409c-.14009 0-.23348-.0233-.29574-.0779-.06226-.0467-.11674-.1557-.16343-.3036l-1.82891-6.01893c-.0467-.15573-.07004-.25696-.07004-.31146 0-.12458.06226-.19466.18678-.19466h.76269c.14787 0 .24905.02336.30352.07786.06226.04672.10896.15573.15565.30367l1.30751 5.15462 1.2141-5.15462c.0389-.15573.0856-.25695.1478-.30367.0623-.04672.1712-.07786.3113-.07786h.6226c.1479 0 .2491.02336.3113.07786.0623.04672.1168.15573.1479.30367l1.2297 5.21692 1.3463-5.21692c.0467-.15573.1012-.25695.1557-.30367.0623-.04672.1634-.07786.3035-.07786h.7238c.1245 0 .1946.06229.1946.19466 0 .03893-.0078.07786-.0156.12458s-.0233.10901-.0545.19466l-1.8756 6.01895c-.0467.1557-.1012.2569-.1634.3036-.0623.0468-.1635.0779-.2958.0779h-.6693c-.1478 0-.249-.0234-.3113-.0779-.0622-.0545-.1167-.1557-.1478-.3114l-1.2063-5.02227-1.1986 5.01447c-.0389.1557-.0856.2569-.1478.3114-.0623.0546-.1712.0779-.3113.0779zm10.00063.2102c-.4047 0-.8094-.0467-1.1985-.1401s-.6927-.1947-.895-.3115c-.1245-.07-.2101-.1479-.2413-.218-.0311-.0701-.0467-.1479-.0467-.218v-.3971c0-.1635.0623-.2414.179-.2414.0467 0 .0934.0078.1401.0234.0467.0155.1168.0467.1946.0778.2646.1168.5525.2103.8561.2726.3113.0622.6148.0934.9261.0934.4903 0 .8716-.0857 1.1363-.257.2646-.1713.4046-.4204.4046-.7397 0-.218-.07-.39708-.2101-.54502-.1401-.14795-.4047-.28032-.786-.4049l-1.1285-.35039c-.5681-.17909-.9884-.44382-1.2452-.79421-.2568-.34261-.3891-.72414-.3891-1.12904 0-.32703.07-.61512.2101-.86429.1401-.24916.3269-.46718.5603-.63849.2335-.17908.4981-.31145.8094-.40489s.6382-.13237.9806-.13237c.1712 0 .3502.00779.5215.03115.179.02336.3424.0545.5058.08565.1557.03893.3036.07786.4436.12458.1401.04672.2491.09344.3269.14016.109.06229.1868.12458.2335.19466.0467.06229.07.14794.07.25695v.36596c0 .16352-.0622.24917-.179.24917-.0622 0-.1634-.03115-.2957-.09344-.4436-.20245-.9417-.30367-1.4943-.30367-.4436 0-.7938.07008-1.0351.21802-.2412.14794-.3657.37375-.3657.69299 0 .21802.0778.40489.2334.55284.1557.14794.4437.29588.8561.42825l1.1052.35039c.5603.17909.965.42825 1.2063.7475.2412.31924.358.6852.358 1.09014 0 .3348-.0701.6384-.2024.9032-.1401.2647-.3269.4983-.5681.6852-.2413.1946-.5292.3348-.8639.436-.3502.109-.716.1635-1.1129.1635z" fill="#252f3e"/><g clip-rule="evenodd" fill="#f90" fill-rule="evenodd"><path d="m21.4556 16.1034c-2.5604 1.8921-6.2805 2.8966-9.4792 2.8966-4.48274 0-8.52191-1.6585-11.572686-4.4149-.24126-.218-.023347-.5139.264608-.3426 3.299818 1.9154 7.370118 3.0756 11.580478 3.0756 2.8407 0 5.9615-.5917 8.8333-1.8064.428-.1947.7938.2803.3735.5917z"/><path d="m22.5219 14.8888c-.3268-.4205-2.1635-.2025-2.9963-.1012-.249.0311-.2879-.1869-.0622-.3504 1.4631-1.0278 3.8679-.732 4.1481-.3894.2802.3504-.0778 2.7564-1.4476 3.9088-.2101.1791-.4125.0857-.3191-.1479.3113-.7709 1.004-2.5072.6771-2.9199z"/></g></svg>