<svg id="blobs" viewBox="0 0 1920 3000" width="1920" height="3000" xmlns="http://www.w3.org/2000/svg"
    xmlns:xlink="http://www.w3.org/1999/xlink" version="1.1">
    <g>
        <g transform="translate(1566 238)">
            <path
                d="M60 -56.8C76.6 -43.4 88.1 -21.7 84.5 -3.7C80.8 14.4 62 28.8 45.4 38.9C28.8 48.9 14.4 54.8 -5.5 60.3C-25.4 65.8 -50.8 71 -67.6 60.9C-84.4 50.8 -92.7 25.4 -89.3 3.4C-85.9 -18.6 -70.9 -37.3 -54.1 -50.7C-37.3 -64.1 -18.6 -72.2 1.5 -73.8C21.7 -75.3 43.4 -70.2 60 -56.8Z"
                stroke="#9353d3" fill="none" stroke-width="20"></path>
        </g>
        <g transform="translate(198 2389)">
            <path
                d="M21.7 -24.4C28.7 -14.8 35.3 -7.4 36.2 0.9C37.1 9.1 32.2 18.3 25.3 25.2C18.3 32.1 9.1 36.8 1.4 35.4C-6.4 34.1 -12.8 26.6 -19.1 19.7C-25.4 12.8 -31.5 6.4 -34.3 -2.8C-37.1 -12 -36.6 -24 -30.3 -33.6C-24 -43.2 -12 -50.4 -2.3 -48.1C7.4 -45.8 14.8 -34 21.7 -24.4Z"
                stroke="#9353d3" fill="none" stroke-width="20"></path>
        </g>
        <g transform="translate(1421 1610)">
            <path
                d="M43.9 -42.2C54.4 -33.4 58.8 -16.7 60.9 2.1C63.1 21 63 41.9 52.4 55C41.9 68 21 73.1 3.2 70C-14.6 66.8 -29.1 55.2 -38.7 42.2C-48.2 29.1 -52.7 14.6 -51.1 1.6C-49.5 -11.4 -41.8 -22.8 -32.3 -31.6C-22.8 -40.4 -11.4 -46.5 2.6 -49.2C16.7 -51.8 33.4 -50.9 43.9 -42.2Z"
                stroke="#9353d3" fill="none" stroke-width="20"></path>
        </g>
        <g transform="translate(1552 2576)">
            <path
                d="M28.8 -27.7C36.3 -21.2 40.9 -10.6 46.1 5.2C51.3 21 57.2 42 49.6 49.1C42 56.2 21 49.3 1.6 47.8C-17.9 46.2 -35.7 49.9 -50.8 42.8C-65.8 35.7 -78.1 17.9 -74 4.1C-69.9 -9.6 -49.4 -19.2 -34.3 -25.8C-19.2 -32.3 -9.6 -35.7 0.5 -36.1C10.6 -36.6 21.2 -34.2 28.8 -27.7Z"
                stroke="#9353d3" fill="none" stroke-width="20"></path>
        </g>
        <g transform="translate(500 370)">
            <path
                d="M11.3 -13.8C14.4 -8.2 16.4 -4.1 17.9 1.4C19.3 7 20.1 14 17.1 20.2C14 26.5 7 32 0.9 31.1C-5.1 30.1 -10.2 22.7 -13 16.5C-15.8 10.2 -16.3 5.1 -18.2 -1.8C-20 -8.8 -23.2 -17.6 -20.4 -23.2C-17.6 -28.8 -8.8 -31.2 -2.3 -28.9C4.1 -26.5 8.2 -19.4 11.3 -13.8Z"
                stroke="#9353d3" fill="none" stroke-width="20"></path>
        </g>
        <g transform="translate(1197 1289)">
            <path
                d="M39.6 -38.3C47.4 -31.8 47.2 -15.9 49.1 2C51.1 19.8 55.2 39.6 47.4 48C39.6 56.4 19.8 53.5 4.8 48.8C-10.3 44 -20.5 37.4 -31 29C-41.5 20.5 -52.3 10.3 -55.8 -3.5C-59.3 -17.3 -55.6 -34.6 -45.1 -41.2C-34.6 -47.7 -17.3 -43.6 -0.7 -42.9C15.9 -42.1 31.8 -44.9 39.6 -38.3Z"
                stroke="#9353d3" fill="none" stroke-width="20"></path>
        </g>
        <g transform="translate(1029 1117)">
            <path
                d="M18.3 -18.6C24.5 -12 31 -6 33.8 2.8C36.6 11.6 35.7 23.1 29.4 27.4C23.1 31.7 11.6 28.8 0.5 28.3C-10.6 27.8 -21.3 29.9 -28.5 25.6C-35.8 21.3 -39.7 10.6 -38.6 1C-37.6 -8.6 -31.6 -17.1 -24.4 -23.8C-17.1 -30.4 -8.6 -35.1 -1.3 -33.8C6 -32.5 12 -25.3 18.3 -18.6Z"
                stroke="#9353d3" fill="none" stroke-width="20"></path>
        </g>
        <g transform="translate(1046 336)">
            <path
                d="M31 -31.3C43.1 -18.9 57.9 -9.5 64.7 6.8C71.4 23 70.2 46 58.1 55.1C46 64.1 23 59.2 5.8 53.4C-11.4 47.6 -22.8 40.9 -38.4 31.8C-53.9 22.8 -73.7 11.4 -73.9 -0.3C-74.2 -11.9 -55 -23.9 -39.4 -36.2C-23.9 -48.6 -11.9 -61.5 -1.2 -60.2C9.5 -59 18.9 -43.7 31 -31.3Z"
                stroke="#9353d3" fill="none" stroke-width="20"></path>
        </g>
        <g transform="translate(768 2816)">
            <path
                d="M22.4 -29.5C29.2 -15.5 35.2 -7.8 40.2 5C45.2 17.7 49.2 35.5 42.3 48.8C35.5 62.1 17.7 71.1 3.6 67.4C-10.5 63.8 -21 47.7 -31.5 34.4C-41.9 21 -52.2 10.5 -53.8 -1.6C-55.4 -13.7 -48.3 -27.5 -37.9 -41.4C-27.5 -55.4 -13.7 -69.6 -3 -66.6C7.8 -63.6 15.5 -43.5 22.4 -29.5Z"
                stroke="#9353d3" fill="none" stroke-width="20"></path>
        </g>
        <g transform="translate(1499 1387)">
            <path
                d="M37.1 -36.9C46.2 -28 50.4 -14 47.4 -3C44.4 8 34.1 15.9 25 22.7C15.9 29.6 8 35.2 -3.3 38.5C-14.5 41.7 -29 42.7 -38.3 35.9C-47.5 29 -51.5 14.5 -50.9 0.6C-50.3 -13.4 -45.2 -26.7 -36 -35.5C-26.7 -44.3 -13.4 -48.6 0.3 -48.9C14 -49.2 28 -45.7 37.1 -36.9Z"
                stroke="#9353d3" fill="none" stroke-width="20"></path>
        </g>
        <g transform="translate(771 1721)">
            <path
                d="M38.9 -46.7C47 -30.7 48 -15.3 45.3 -2.8C42.5 9.8 36 19.6 27.8 34.2C19.6 48.8 9.8 68.2 -0.9 69.1C-11.7 70.1 -23.4 52.6 -32 38C-40.6 23.4 -46.1 11.7 -46.3 -0.1C-46.4 -12 -41.2 -23.9 -32.5 -39.9C-23.9 -55.9 -12 -75.8 1.7 -77.5C15.3 -79.2 30.7 -62.6 38.9 -46.7Z"
                stroke="#9353d3" fill="none" stroke-width="20"></path>
        </g>
        <g transform="translate(1555 650)">
            <path
                d="M35.2 -37.5C42.5 -27.9 43.2 -13.9 41.4 -1.7C39.7 10.5 35.5 20.9 28.2 27.5C20.9 34.1 10.5 36.9 -1.6 38.5C-13.6 40.1 -27.3 40.5 -40.1 33.9C-53 27.3 -65 13.6 -67.8 -2.7C-70.5 -19.1 -63.9 -38.2 -51.1 -47.9C-38.2 -57.6 -19.1 -57.8 -2.6 -55.2C13.9 -52.6 27.9 -47.2 35.2 -37.5Z"
                stroke="#9353d3" fill="none" stroke-width="20"></path>
        </g>
        <g transform="translate(420 1958)">
            <path
                d="M26.3 -26.1C32.5 -20 35 -10 35.1 0.1C35.2 10.2 33 20.4 26.7 24.1C20.4 27.7 10.2 24.7 -0.8 25.5C-11.9 26.4 -23.8 31 -29.9 27.4C-36.1 23.8 -36.5 11.9 -33.7 2.8C-30.9 -6.2 -24.8 -12.5 -18.6 -18.6C-12.5 -24.7 -6.2 -30.8 1.9 -32.6C10 -34.5 20 -32.3 26.3 -26.1Z"
                stroke="#9353d3" fill="none" stroke-width="20"></path>
        </g>
        <g transform="translate(741 350)">
            <path
                d="M29.6 -35.9C39.1 -20.2 48 -10.1 53.4 5.3C58.7 20.8 60.5 41.5 51 50.2C41.5 58.9 20.8 55.4 0 55.4C-20.7 55.3 -41.4 58.7 -54.3 50.1C-67.2 41.4 -72.2 20.7 -72.7 -0.5C-73.3 -21.7 -69.2 -43.5 -56.3 -59.2C-43.5 -74.9 -21.7 -84.5 -5.8 -78.7C10.1 -72.9 20.2 -51.6 29.6 -35.9Z"
                stroke="#9353d3" fill="none" stroke-width="20"></path>
        </g>
        <g transform="translate(1792 1298)">
            <path
                d="M45 -44.1C53.1 -36.8 51 -18.4 47.1 -3.9C43.2 10.6 37.6 21.3 29.4 31.8C21.3 42.3 10.6 52.7 -1 53.7C-12.6 54.7 -25.2 46.2 -32 35.7C-38.8 25.2 -39.9 12.6 -43.6 -3.7C-47.3 -20 -53.6 -39.9 -46.8 -47.2C-39.9 -54.4 -20 -48.9 -0.8 -48.1C18.4 -47.3 36.8 -51.3 45 -44.1Z"
                stroke="#9353d3" fill="none" stroke-width="20"></path>
        </g>
        <g transform="translate(1352 765)">
            <path
                d="M34 -30.5C43 -25 48.6 -12.5 46.6 -2C44.7 8.6 35.2 17.1 26.2 22.2C17.1 27.2 8.6 28.8 0.1 28.7C-8.4 28.6 -16.9 27 -24.9 21.9C-33 16.9 -40.6 8.4 -42 -1.4C-43.4 -11.2 -38.5 -22.5 -30.5 -28C-22.5 -33.5 -11.2 -33.3 0.6 -33.9C12.5 -34.6 25 -36 34 -30.5Z"
                stroke="#9353d3" fill="none" stroke-width="20"></path>
        </g>
        <g transform="translate(426 611)">
            <path
                d="M20.7 -20.2C26.7 -14.7 31.3 -7.4 32.1 0.8C32.8 8.9 29.8 17.8 23.8 23.7C17.8 29.6 8.9 32.4 1.8 30.6C-5.3 28.8 -10.6 22.4 -19.3 16.5C-28.1 10.6 -40.2 5.3 -42.4 -2.2C-44.6 -9.7 -36.8 -19.4 -28.1 -24.9C-19.4 -30.4 -9.7 -31.7 -1.2 -30.5C7.4 -29.4 14.7 -25.7 20.7 -20.2Z"
                stroke="#9353d3" fill="none" stroke-width="20"></path>
        </g>
        <g transform="translate(1318 286)">
            <path
                d="M32.7 -31.7C38.8 -26.6 37.7 -13.3 36 -1.8C34.2 9.8 31.8 19.6 25.7 25.4C19.6 31.3 9.8 33.1 -1.4 34.5C-12.7 36 -25.4 37 -34.7 31.2C-44.1 25.4 -50.1 12.7 -50.5 -0.4C-50.8 -13.5 -45.6 -26.9 -36.3 -32C-26.9 -37.1 -13.5 -33.8 -0.1 -33.7C13.3 -33.6 26.6 -36.8 32.7 -31.7Z"
                stroke="#9353d3" fill="none" stroke-width="20"></path>
        </g>
        <g transform="translate(1351 2873)">
            <path
                d="M35.7 -38.8C42 -29.4 39.9 -14.7 42.3 2.3C44.6 19.4 51.4 38.8 45.1 45.2C38.8 51.6 19.4 45.1 6 39.1C-7.5 33.1 -14.9 27.8 -26.8 21.3C-38.6 14.9 -54.8 7.5 -56.8 -2C-58.7 -11.4 -46.4 -22.7 -34.6 -32.1C-22.7 -41.4 -11.4 -48.7 1.7 -50.3C14.7 -52 29.4 -48.1 35.7 -38.8Z"
                stroke="#9353d3" fill="none" stroke-width="20"></path>
        </g>
        <g transform="translate(126 1048)">
            <path
                d="M52.4 -52C66.1 -38.6 74.3 -19.3 75.5 1.2C76.6 21.6 70.7 43.2 57 54.4C43.2 65.5 21.6 66.2 -0.8 67C-23.3 67.9 -46.6 68.9 -53.4 57.7C-60.3 46.6 -50.8 23.3 -43.8 7C-36.9 -9.4 -32.5 -18.7 -25.6 -32.2C-18.7 -45.6 -9.4 -63.1 5 -68.1C19.3 -73.1 38.6 -65.5 52.4 -52Z"
                stroke="#9353d3" fill="none" stroke-width="20"></path>
        </g>
        <g transform="translate(1415 2278)">
            <path
                d="M24.2 -24.4C29.6 -18.8 30.9 -9.4 29.5 -1.4C28.1 6.6 24 13.2 18.6 20C13.2 26.7 6.6 33.6 -0.9 34.5C-8.4 35.4 -16.8 30.3 -21.4 23.6C-25.9 16.8 -26.6 8.4 -25 1.6C-23.3 -5.1 -19.4 -10.3 -14.8 -15.8C-10.3 -21.3 -5.1 -27.3 2.1 -29.4C9.4 -31.6 18.8 -29.9 24.2 -24.4Z"
                stroke="#9353d3" fill="none" stroke-width="20"></path>
        </g>
        <g transform="translate(1290 1918)">
            <path
                d="M22.5 -24.5C29.5 -15.5 35.7 -7.8 37.9 2.2C40.2 12.2 38.4 24.4 31.4 31.9C24.4 39.4 12.2 42.2 1.2 41C-9.8 39.8 -19.6 34.6 -26.7 27.1C-33.8 19.6 -38.3 9.8 -37.2 1C-36.2 -7.7 -29.7 -15.4 -22.6 -24.4C-15.4 -33.4 -7.7 -43.6 0 -43.6C7.8 -43.6 15.5 -33.5 22.5 -24.5Z"
                stroke="#9353d3" fill="none" stroke-width="20"></path>
        </g>
        <g transform="translate(942 618)">
            <path
                d="M14.4 -16.4C18.2 -10.5 20.8 -5.2 21.6 0.9C22.5 7 21.7 14 17.9 20.7C14 27.4 7 33.8 -0.8 34.6C-8.5 35.4 -17.1 30.5 -20.3 23.8C-23.5 17.1 -21.5 8.5 -21.9 -0.5C-22.4 -9.5 -25.5 -19 -22.3 -25C-19 -30.9 -9.5 -33.3 -2.1 -31.1C5.2 -29 10.5 -22.4 14.4 -16.4Z"
                stroke="#9353d3" fill="none" stroke-width="20"></path>
        </g>
        <g transform="translate(938 1987)">
            <path
                d="M28.3 -31.9C33.3 -23.3 31.7 -11.6 29 -2.7C26.3 6.2 22.5 12.4 17.5 16.8C12.4 21.2 6.2 23.8 -2.9 26.7C-12.1 29.6 -24.2 33 -31.8 28.6C-39.4 24.2 -42.5 12.1 -42 0.5C-41.6 -11.2 -37.6 -22.4 -30 -31C-22.4 -39.6 -11.2 -45.6 0.2 -45.8C11.6 -46 23.3 -40.5 28.3 -31.9Z"
                stroke="#9353d3" fill="none" stroke-width="20"></path>
        </g>
        <g transform="translate(1765 1907)">
            <path
                d="M18.5 -19.2C22.3 -14.7 22.5 -7.4 23.6 1.1C24.6 9.5 26.5 18.9 22.7 24.5C18.9 30.2 9.5 31.9 0.9 31.1C-7.7 30.2 -15.4 26.6 -22.1 21C-28.9 15.4 -34.8 7.7 -36.4 -1.7C-38.1 -11 -35.5 -22 -28.8 -26.5C-22 -30.9 -11 -28.9 -1.8 -27.1C7.4 -25.3 14.7 -23.7 18.5 -19.2Z"
                stroke="#9353d3" fill="none" stroke-width="20"></path>
        </g>
        <g transform="translate(538 2754)">
            <path
                d="M14.6 -14.8C18 -11.1 19.5 -5.5 20.8 1.4C22.2 8.3 23.6 16.6 20.1 21.7C16.6 26.9 8.3 28.8 1.5 27.3C-5.4 25.9 -10.7 21 -13.5 15.8C-16.2 10.7 -16.4 5.4 -15.7 0.7C-15 -3.9 -13.4 -7.9 -10.7 -11.6C-7.9 -15.3 -3.9 -18.8 0.8 -19.6C5.5 -20.4 11.1 -18.5 14.6 -14.8Z"
                stroke="#9353d3" fill="none" stroke-width="20"></path>
        </g>
        <g transform="translate(253 1629)">
            <path
                d="M16.1 -16.1C23 -9.3 32 -4.6 35.3 3.2C38.5 11.1 35.9 22.2 29.1 27.4C22.2 32.5 11.1 31.6 0.4 31.2C-10.3 30.8 -20.6 30.8 -26.8 25.7C-33 20.6 -35.1 10.3 -33.5 1.6C-31.9 -7.1 -26.7 -14.3 -20.5 -21.1C-14.3 -28 -7.1 -34.5 -1.2 -33.3C4.6 -32 9.3 -23 16.1 -16.1Z"
                stroke="#9353d3" fill="none" stroke-width="20"></path>
        </g>
        <g transform="translate(1063 2487)">
            <path
                d="M23.5 -28.7C30.5 -16.6 36.1 -8.3 38.4 2.4C40.8 13 39.9 26 33 34C26 42 13 44.9 -1.7 46.6C-16.4 48.3 -32.7 48.7 -41.5 40.7C-50.3 32.7 -51.4 16.4 -50 1.4C-48.6 -13.6 -44.6 -27.1 -35.9 -39.3C-27.1 -51.4 -13.6 -62.2 -2.6 -59.6C8.3 -56.9 16.6 -40.9 23.5 -28.7Z"
                stroke="#9353d3" fill="none" stroke-width="20"></path>
        </g>
        <g transform="translate(155 432)">
            <path
                d="M30.3 -33.4C36 -24.7 35 -12.3 31.4 -3.6C27.8 5.2 21.7 10.3 16 17.6C10.3 24.9 5.2 34.3 -1.4 35.6C-7.9 37 -15.8 30.3 -22.3 23.1C-28.8 15.8 -33.9 7.9 -32.4 1.5C-30.8 -4.8 -22.6 -9.6 -16.1 -18.3C-9.6 -27 -4.8 -39.6 3.8 -43.4C12.3 -47.2 24.7 -42.1 30.3 -33.4Z"
                stroke="#9353d3" fill="none" stroke-width="20"></path>
        </g>
        <g transform="translate(1649 2276)">
            <path
                d="M51.9 -51.2C69.2 -34.5 86.7 -17.3 89.7 3C92.7 23.3 81.3 46.5 63.9 62.9C46.5 79.4 23.3 89 1.6 87.4C-20.1 85.8 -40.2 73 -53.7 56.6C-67.2 40.2 -74.2 20.1 -72.7 1.5C-71.2 -17.1 -61.3 -34.2 -47.8 -50.9C-34.2 -67.5 -17.1 -83.7 0.1 -83.8C17.3 -83.9 34.5 -67.8 51.9 -51.2Z"
                stroke="#9353d3" fill="none" stroke-width="20"></path>
        </g>
        <g transform="translate(351 1091)">
            <path
                d="M28.1 -29.2C33.1 -23.1 31.5 -11.6 31.8 0.4C32.2 12.3 34.5 24.6 29.5 34.4C24.6 44.2 12.3 51.7 -0.5 52.2C-13.3 52.7 -26.7 46.4 -36.3 36.5C-45.8 26.7 -51.6 13.3 -50.4 1.2C-49.1 -10.9 -40.9 -21.8 -31.4 -27.9C-21.8 -34 -10.9 -35.2 0.3 -35.5C11.6 -35.9 23.1 -35.3 28.1 -29.2Z"
                stroke="#9353d3" fill="none" stroke-width="20"></path>
        </g>
        <g transform="translate(335 2590)">
            <path
                d="M15.5 -19.4C19.3 -11.8 20.9 -5.9 23.4 2.5C26 11 29.5 22 25.7 27.8C22 33.5 11 34.1 0.6 33.6C-9.9 33 -19.8 31.3 -24.4 25.5C-29.1 19.8 -28.5 9.9 -26.3 2.2C-24.2 -5.6 -20.4 -11.1 -15.8 -18.7C-11.1 -26.4 -5.6 -36 0.2 -36.2C5.9 -36.4 11.8 -27 15.5 -19.4Z"
                stroke="#9353d3" fill="none" stroke-width="20"></path>
        </g>
        <g transform="translate(1591 952)">
            <path
                d="M24 -25.4C29.6 -18.3 31.7 -9.2 31.8 0.1C31.9 9.4 30.1 18.8 24.5 24.8C18.8 30.7 9.4 33.1 -1.1 34.3C-11.7 35.4 -23.4 35.2 -27.2 29.3C-31.1 23.4 -27.1 11.7 -26.9 0.3C-26.6 -11.2 -30.1 -22.3 -26.2 -29.4C-22.3 -36.4 -11.2 -39.4 -1 -38.4C9.2 -37.4 18.3 -32.4 24 -25.4Z"
                stroke="#9353d3" fill="none" stroke-width="20"></path>
        </g>
        <g transform="translate(785 1083)">
            <path
                d="M28.7 -31.5C32.8 -24.6 28.7 -12.3 25.6 -3.2C22.4 6 20.2 11.9 16.1 16.8C11.9 21.6 6 25.3 -2.1 27.4C-10.2 29.6 -20.5 30.2 -25.8 25.3C-31.1 20.5 -31.5 10.2 -32.4 -0.9C-33.3 -12.1 -34.9 -24.3 -29.6 -31.2C-24.3 -38.1 -12.1 -39.7 0.1 -39.8C12.3 -39.9 24.6 -38.4 28.7 -31.5Z"
                stroke="#9353d3" fill="none" stroke-width="20"></path>
        </g>
        <g transform="translate(1532 1821)">
            <path
                d="M24 -24.3C32.8 -15.3 42.6 -7.7 43.9 1.3C45.2 10.3 38 20.5 29.3 24.7C20.5 28.8 10.3 26.8 2.2 24.5C-5.8 22.3 -11.6 19.8 -19.8 15.7C-28 11.6 -38.7 5.8 -41.9 -3.2C-45.1 -12.3 -41 -24.5 -32.7 -33.5C-24.5 -42.4 -12.3 -48.1 -2.3 -45.8C7.7 -43.5 15.3 -33.2 24 -24.3Z"
                stroke="#9353d3" fill="none" stroke-width="20"></path>
        </g>
        <g transform="translate(502 855)">
            <path
                d="M34.3 -36.4C42 -26.5 44.2 -13.3 42.6 -1.6C41 10 35.5 20 27.8 32.4C20 44.7 10 59.3 -3.7 63C-17.3 66.6 -34.7 59.3 -43.1 47C-51.4 34.7 -50.8 17.3 -53.1 -2.3C-55.5 -22 -60.8 -44.1 -52.4 -54C-44.1 -64 -22 -61.8 -4.4 -57.4C13.3 -53 26.5 -46.4 34.3 -36.4Z"
                stroke="#9353d3" fill="none" stroke-width="20"></path>
        </g>
        <g transform="translate(1719 1613)">
            <path
                d="M27.1 -32C32 -22.2 30.7 -11.1 31 0.3C31.3 11.7 33.1 23.3 28.2 33.5C23.3 43.6 11.7 52.3 1.6 50.7C-8.4 49 -16.8 37.1 -27.2 26.9C-37.7 16.8 -50.2 8.4 -52.8 -2.5C-55.3 -13.5 -47.9 -27 -37.4 -36.8C-27 -46.6 -13.5 -52.7 -1.2 -51.5C11.1 -50.3 22.2 -41.8 27.1 -32Z"
                stroke="#9353d3" fill="none" stroke-width="20"></path>
        </g>
        <g transform="translate(489 1296)">
            <path
                d="M22.6 -23.4C31.6 -13.6 42.9 -6.8 42.6 -0.3C42.4 6.2 30.5 12.4 21.5 19.3C12.4 26.2 6.2 33.8 -2.2 35.9C-10.5 38.1 -21.1 34.9 -28.2 28C-35.2 21.1 -38.9 10.5 -38.3 0.5C-37.8 -9.4 -33.1 -18.9 -26 -28.7C-18.9 -38.5 -9.4 -48.7 -1.3 -47.3C6.8 -46 13.6 -33.2 22.6 -23.4Z"
                stroke="#9353d3" fill="none" stroke-width="20"></path>
        </g>
        <g transform="translate(1803 2779)">
            <path
                d="M50.2 -50.9C61.4 -38.9 64.4 -19.5 63.8 -0.6C63.3 18.4 59.2 36.7 48 48.9C36.7 61.1 18.4 67.1 -1.8 69C-22.1 70.8 -44.1 68.5 -52 56.3C-60 44.1 -53.8 22.1 -51.6 2.2C-49.4 -17.7 -51.2 -35.3 -43.3 -47.3C-35.3 -59.2 -17.7 -65.4 0.9 -66.3C19.5 -67.3 38.9 -62.8 50.2 -50.9Z"
                stroke="#9353d3" fill="none" stroke-width="20"></path>
        </g>
    </g>
</svg>