<?xml version="1.0" encoding="utf-8"?>

<svg xmlns="http://www.w3.org/2000/svg" viewBox="0 0 1920 700" width="1920px" height="500px"
    xmlns:bx="https://boxy-svg.com" preserveAspectRatio="none">

    <defs>

        <bx:export>
            <bx:file format="svg" excluded="true" />
            <bx:file format="svg" path="Untitled 2.svg" />
        </bx:export>
    </defs>
    <path
        d="M -96.581 345.664 C -77.998 295.018 8.887 268.877 42.485 265.057 C 88.43 265.336 109.055 321.859 195.41 318.244 C 281.765 314.567 323 283.003 409.322 286.306 C 495.646 289.609 600.409 389.738 686.769 384.753 C 773.126 379.766 832.225 293.052 918.554 302.643 C 1114.596 324.423 1182.998 398.202 1269.388 400.259 C 1355.708 402.314 1443.853 410.995 1530.213 399.653 C 1616.523 388.31 1724.542 417.679 1809.153 441.085 C 1924.965 473.122 1945.246 366.157 1945.256 366.107 C 1945.247 366.156 1336.182 137.899 1261.736 106.224 C 147.931 -306.404 191.759 -310 148.581 -310 L -22.909 148.635 L -96.581 345.664 Z"
        style="fill: rgb(153, 47, 123); transform-box: fill-box; transform-origin: 50% 50%;"
        transform="matrix(0.936663, -0.350231, 0.350231, 0.936663, -64.824236, 10.247744)" />
    <path
        d="M -52.986 211.133 L -75.263 270.711 L -97.54 330.289 C -102.583 347.55 -79.428 311.527 -44.225 270.323 C -9.023 229.12 38.227 182.736 81.373 179.277 C 124.519 175.787 192.14 188.88 259.76 202.394 C 327.381 215.909 395.002 229.844 438.148 228.036 C 481.295 226.198 543.638 210.719 605.063 198.986 C 666.488 187.253 726.995 179.265 766.47 192.406 C 806.625 205.774 845.172 229.645 884.467 250.368 C 923.763 271.092 963.807 288.668 1006.959 289.447 C 1050.103 290.226 1086.005 285.287 1121.908 281.112 C 1157.811 276.937 1193.716 273.526 1236.866 277.358 C 1280.006 281.191 1368.305 310.963 1419.194 329.209 C 1470.083 347.454 1583.172 366.283 1626.307 365.598 C 1669.462 364.912 1750.57 356.601 1810.835 380.162 C 1871.1 403.723 1910.901 448.527 1927.982 402.844 C 1886.228 387.232 1448.077 215.466 1014.972 47.604 C 581.866 -120.259 153.806 -284.219 132.233 -284.219 L 86.244 -161.225 L 40.255 -38.232 L -6.365 86.45 L -52.986 211.133 Z"
        style="fill: rgb(255, 113, 215) ;"
        transform="matrix(0.936663031578, -0.350231051445, 0.350231051445, 0.936663031578, -26.957249680487, 297.909914775493)" />
</svg>