<?xml version="1.0" encoding="utf-8"?>
<svg xmlns="http://www.w3.org/2000/svg" viewBox="0 0 1920 800" width="1920px" height="700px"
    xmlns:bx="https://boxy-svg.com" preserveAspectRatio="none">
    <defs>
        <bx:export>
            <bx:file format="svg" />
        </bx:export>
    </defs>
    <path style="fill: #9353d3; stroke-opacity: 0; stroke-width: 0px;"
        d="M 0 0 L 0 718.024 L 927.635 307.298 L 1904.738 65.784 L 1920.053 0 L 0 0 Z" />
    <path
        d="M -0.707 800 C -1.032 749.307 71.193 697.707 101.325 683.288 C 144.458 668.414 183.572 711.374 263.192 679.773 C 342.79 648.118 370.358 606.768 452.37 581.267 C 534.383 555.765 646.835 590.054 725.979 557.246 C 805.12 524.438 850.85 448.03 935.07 428.061 C 1126.32 382.715 1216.23 425.14 1297.86 398.52 C 1379.44 371.922 1465.05 350.553 1541.96 312.15 C 1618.83 273.763 1730.256 263.506 1817.75 256.818 C 1841.797 254.98 1874.732 253.496 1895.135 216.389 C 1922.389 166.82 1920 99.052 1920 99.019 C 1920 99.066 1268.55 186.766 1187.72 183.389 C 674.645 288.791 289.874 381.464 162.214 407.192 L -0.702 602.342 L -0.707 800 Z"
        style="fill: rgb(153, 47, 123); transform-origin: 858.493px 177.134px;" />
    <path
        d="M 181.644 347.407 C 142.911 353.333 116.509 356.084 76.847 393.221 C 37.185 430.358 9.915 458.953 -1.016 519.954 L -2.337 634.382 L -3.661 748.811 C -2.999 757.237 46.187 628.507 60.408 606.277 C 74.629 584.047 91.433 565.643 111.034 557.021 C 130.629 548.386 223.905 543.981 289.442 537.202 C 357.199 530.194 446.547 498.717 466.437 490.821 C 486.323 482.913 559.433 455.933 607.074 399.259 C 644.134 355.172 720.626 361.005 799.389 349.383 C 883.179 337.019 960.444 355.419 1045.621 343.85 C 1126.202 332.906 1186.067 279.556 1260.88 261.697 C 1335.693 243.838 1364.924 261.832 1449.82 251.479 C 1528.068 241.937 1569.946 207.55 1641.083 189.001 C 1707.743 171.62 1776.773 188.633 1809.123 189.087 C 1841.473 189.539 1920 148.048 1920 99.362 C 1920 85.19 1920 -26.071 1920 0 C 1920 35.543 1700.057 72.985 1657.678 72.985 C 1607.57 72.985 1407.49 58.048 1328.079 105.897 C 1252.73 151.299 1111.144 194.652 1051.454 200.541 C 991.762 206.429 903.791 191.166 842.516 180.543 C 762.04 166.591 605.051 197.39 551.615 220.19 C 510.613 237.685 392.653 307.68 353.61 322.984 C 314.567 338.288 220.377 341.481 181.644 347.407 Z"
        style="fill: rgb(255, 113, 215); transform-origin: 898.35px 258.834px;" />
</svg>