<svg id="visual" viewBox="0 0 1920 1000" width="1920" height="1000" xmlns="http://www.w3.org/2000/svg"
    xmlns:xlink="http://www.w3.org/1999/xlink" version="1.1">
    <path
        d="M0 616L40 634.5C80 653 160 690 240 695.8C320 701.7 400 676.3 480 671C560 665.7 640 680.3 720 688.3C800 696.3 880 697.7 960 682.7C1040 667.7 1120 636.3 1200 633C1280 629.7 1360 654.3 1440 672.5C1520 690.7 1600 702.3 1680 690C1760 677.7 1840 641.3 1880 623.2L1920 605L1920 1001L1880 1001C1840 1001 1760 1001 1680 1001C1600 1001 1520 1001 1440 1001C1360 1001 1280 1001 1200 1001C1120 1001 1040 1001 960 1001C880 1001 800 1001 720 1001C640 1001 560 1001 480 1001C400 1001 320 1001 240 1001C160 1001 80 1001 40 1001L0 1001Z"
        fill="#fa7268"></path>
    <path
        d="M0 793L40 792.2C80 791.3 160 789.7 240 800.8C320 812 400 836 480 841.8C560 847.7 640 835.3 720 839.8C800 844.3 880 865.7 960 863.2C1040 860.7 1120 834.3 1200 822C1280 809.7 1360 811.3 1440 813.5C1520 815.7 1600 818.3 1680 831.7C1760 845 1840 869 1880 881L1920 893L1920 1001L1880 1001C1840 1001 1760 1001 1680 1001C1600 1001 1520 1001 1440 1001C1360 1001 1280 1001 1200 1001C1120 1001 1040 1001 960 1001C880 1001 800 1001 720 1001C640 1001 560 1001 480 1001C400 1001 320 1001 240 1001C160 1001 80 1001 40 1001L0 1001Z"
        fill="#c62368"></path>
</svg>