<?xml version="1.0" encoding="utf-8"?>
<!-- Generator: Adobe Illustrator 28.0.0, SVG Export Plug-In . SVG Version: 6.00 Build 0)  -->
<svg version="1.1" id="myRutgers" xmlns="http://www.w3.org/2000/svg" xmlns:xlink="http://www.w3.org/1999/xlink" x="0px" y="0px"
	 viewBox="0 0 505.94 150" style="enable-background:new 0 0 505.94 150;" xml:space="preserve">
<style type="text/css">
	.st0{fill:#CC0033;}
	.st1{fill:#FFFFFF;}
</style>
<path class="st0" d="M121.11,78.18l2.39-0.9c19.85-7.48,29.49-18.78,29.49-34.54c0-10.92-4.37-19.82-13.34-27.21
	c-9.51-7.71-22.59-11.62-38.86-11.62c0,0-92.97-0.01-96.88,0v20.6c0.61,0,4.93,0,11.28,0.01v101.02H3.91v20.56h66.07v-20.56H58.32
	V82h23.95l27.4,43.53H94.26v20.56h71.54v-20.56h-13.53L121.11,78.18z M102.24,56.45l-0.06,0.04c-5.1,3.99-12.62,6.01-22.37,6.01
	H58.32V24.5c14.64,0,26.5,0,26.5,0c8.28,0,14.72,2.32,19.11,6.86c3.2,3.17,4.83,7.17,4.83,11.91
	C108.76,48.37,106.57,52.8,102.24,56.45L102.24,56.45z"/>
<path class="st1" d="M84.83,24.5l-26.51,0V62.5h21.49c9.74,0,17.27-2.02,22.37-6.01l0.06-0.04c4.33-3.64,6.53-8.08,6.53-13.17
	c0-4.74-1.63-8.74-4.83-11.91C99.54,26.82,93.1,24.5,84.83,24.5L84.83,24.5z M99.79,53.4l-0.02,0.01
	c-4.39,3.44-11.11,5.18-19.96,5.18H62.23V28.41l22.6,0c7.17,0,12.66,1.9,16.3,5.67l0.06,0.06c2.47,2.45,3.67,5.43,3.67,9.13
	C104.86,47.19,103.2,50.51,99.79,53.4L99.79,53.4z"/>
<path class="st1" d="M154.38,121.62l-27.34-41.53c19.82-8.05,29.86-20.61,29.86-37.35c0-12.15-4.83-22.04-14.79-30.25
	C131.89,4.2,117.99,0.01,100.79,0.01L0,0.01v28.38l11.28,0v93.23H0V150h73.89v-28.38H62.23V85.91h17.89l22.48,35.71H90.35V150h79.35
	v-28.38H154.38z M165.8,146.09H94.26v-20.56h15.41L82.27,82H58.32v43.53h11.66v20.56H3.91v-20.56h11.28V24.5l-11.28,0V3.91h96.89
	c16.27,0,29.35,3.91,38.86,11.62c8.97,7.39,13.34,16.29,13.34,27.21c0,15.77-9.65,27.06-29.49,34.54l-2.39,0.9l31.16,47.35h13.53
	V146.09z"/>
<rect x="198.09" class="st1" width="3.91" height="150"/>
<path class="st1" d="M254.78,129.16c-1.94-3.31-2.74-4.68-4.68-8.21c-4.97-9-6.48-11.45-8.28-12.24c-0.5-0.22-0.94-0.36-1.58-0.43
	v20.88h-9.86V79.11h18.65c8.86,0,14.69,5.9,14.69,14.69c0,7.49-4.97,13.68-11.16,13.83c1.01,0.79,1.44,1.22,2.09,2.09
	c2.59,3.24,10.23,16.27,12.02,19.44H254.78z M249.52,87.9c-1.15-0.43-3.24-0.72-5.69-0.72h-3.6v13.54h3.38
	c4.32,0,6.19-0.43,7.56-1.66c1.22-1.15,1.94-2.95,1.94-5.04C253.12,90.92,251.9,88.76,249.52,87.9z"/>
<path class="st1" d="M306.33,120.66c-1.3,3.96-6.19,9.43-16.99,9.43c-7.63,0-13.25-2.3-16.06-6.7c-1.66-2.59-2.16-4.61-2.16-9.43
	V79.11h10.3v32.91c0,3.1,0.29,4.9,0.86,5.98c1.15,2.23,3.53,3.46,6.84,3.46c4.39,0,7.2-2.16,7.63-5.83c0.14-1.08,0.14-1.8,0.14-4.46
	V79.11h10.23v33.7C307.13,117.56,307.05,118.5,306.33,120.66z"/>
<path class="st1" d="M346.62,87.46h-11.95v41.69h-10.22V87.46H312.2v-8.35h36.08L346.62,87.46z"/>
<path class="st1" d="M370.74,129.73c-7.49,0-13.03-2.45-17.07-7.63c-3.67-4.68-5.33-10.01-5.33-17.5c0-10.58,3.46-18.07,10.44-22.75
	c3.67-2.45,7.42-3.53,12.17-3.53c6.05,0,11.52,1.94,15.91,5.76l-5.33,6.26c-3.24-2.66-6.62-3.89-10.44-3.89
	c-2.95,0-5.47,0.86-7.2,2.52c-3.38,3.24-4.25,8.64-4.25,16.13c0,7.13,1.22,11.74,3.74,14.26c1.87,1.8,4.61,2.81,7.85,2.81
	c2.23,0,4.03-0.36,5.69-1.22v-11.38h-7.63l-1.3-8.21h19.37v23.91C382.26,128.29,376.65,129.73,370.74,129.73z"/>
<path class="st1" d="M394.79,129.16V79.11h28.51l-1.3,8.21h-16.99v11.59h14.19v8.21h-14.19v13.39h18.94v8.64H394.79z"/>
<path class="st1" d="M454.69,129.16c-1.94-3.31-2.74-4.68-4.68-8.21c-4.97-9-6.48-11.45-8.28-12.24c-0.5-0.22-0.94-0.36-1.58-0.43
	v20.88h-9.86V79.11h18.65c8.86,0,14.69,5.9,14.69,14.69c0,7.49-4.97,13.68-11.16,13.83c1.01,0.79,1.44,1.22,2.09,2.09
	c2.59,3.24,10.23,16.27,12.02,19.44H454.69z M449.44,87.9c-1.15-0.43-3.24-0.72-5.69-0.72h-3.6v13.54h3.38
	c4.32,0,6.19-0.43,7.56-1.66c1.22-1.15,1.94-2.95,1.94-5.04C453.04,90.92,451.81,88.76,449.44,87.9z"/>
<path class="st1" d="M485.28,130.24c-5.69,0-12.02-1.66-17.07-4.54l3.74-7.85c4.68,2.45,8.71,4.03,13.75,4.03
	c5.76,0,8.78-2.38,8.78-6.84c0-3.24-2.09-5.26-6.55-6.48l-5.54-1.51c-4.97-1.37-8.06-3.31-9.86-6.34c-1.37-2.23-2.09-4.82-2.09-7.63
	c0-9.14,7.34-15.48,17.93-15.48c6.12,0,12.31,1.87,16.71,5.04l-4.75,7.2c-4.54-2.74-7.92-3.82-11.66-3.82
	c-4.1,0-6.98,2.38-6.98,5.76c0,2.59,1.37,3.89,5.54,5.04l6.05,1.66c8.21,2.23,12.67,7.49,12.67,14.91
	C505.94,123.54,497.73,130.24,485.28,130.24z"/>
<path class="st1" d="M268.56,58.41V34.07c0-4.39-0.5-5.26-3.02-5.26c-1.8,0-4.32,1.22-6.41,3.1v26.49h-9.14V34.43
	c0-4.61-0.65-5.69-3.31-5.69c-1.8,0-4.25,0.94-6.34,2.81v26.85h-9.43V32.7c0-5.33-0.36-7.63-1.37-9.43l8.71-2.38
	c0.65,1.01,0.94,1.87,1.3,3.74c2.52-2.45,5.62-3.74,9-3.74c3.02,0,5.54,1.01,7.49,3.02c0.5,0.5,1.01,1.15,1.44,1.8
	c3.38-3.46,6.41-4.82,10.44-4.82c2.88,0,5.62,0.86,7.27,2.3c2.09,1.8,2.74,3.96,2.74,9v26.21H268.56z"/>
<path class="st1" d="M304.63,58.98c-2.52,7.13-4.39,10.22-7.06,12.17c-2.45,1.8-5.62,2.95-8.93,3.38l-3.31-6.34
	c2.09-0.58,4.54-1.44,5.98-2.45c1.08-0.79,1.94-1.8,2.74-3.02c0.94-1.51,1.22-2.16,2.09-4.32h-2.45l-12.17-36.28l9.86-1.15
	l6.41,21.53l1.94,7.63c0-0.22,0.72-4.1,1.15-5.9c0.29-1.22,0.86-3.38,1.44-5.11l5.54-17.57h10.15L304.63,58.98z"/>
</svg>
