<svg id="visual" viewBox="0 0 1000 175" width="1000" height="175" xmlns="http://www.w3.org/2000/svg" xmlns:xlink="http://www.w3.org/1999/xlink" version="1.1"><rect x="0" y="0" width="1000" height="175" fill="#FF750D"></rect><path d="M0 33L23.8 33.3C47.7 33.7 95.3 34.3 143 35.3C190.7 36.3 238.3 37.7 286 41C333.7 44.3 381.3 49.7 428.8 52.2C476.3 54.7 523.7 54.3 571.2 54C618.7 53.7 666.3 53.3 714 50.2C761.7 47 809.3 41 857 41C904.7 41 952.3 47 976.2 50L1000 53L1000 176L976.2 176C952.3 176 904.7 176 857 176C809.3 176 761.7 176 714 176C666.3 176 618.7 176 571.2 176C523.7 176 476.3 176 428.8 176C381.3 176 333.7 176 286 176C238.3 176 190.7 176 143 176C95.3 176 47.7 176 23.8 176L0 176Z" fill="#ff750d"></path><path d="M0 82L23.8 79.2C47.7 76.3 95.3 70.7 143 70.8C190.7 71 238.3 77 286 77.3C333.7 77.7 381.3 72.3 428.8 72C476.3 71.7 523.7 76.3 571.2 78.7C618.7 81 666.3 81 714 81.8C761.7 82.7 809.3 84.3 857 81.5C904.7 78.7 952.3 71.3 976.2 67.7L1000 64L1000 176L976.2 176C952.3 176 904.7 176 857 176C809.3 176 761.7 176 714 176C666.3 176 618.7 176 571.2 176C523.7 176 476.3 176 428.8 176C381.3 176 333.7 176 286 176C238.3 176 190.7 176 143 176C95.3 176 47.7 176 23.8 176L0 176Z" fill="#ffa069"></path><path d="M0 101L23.8 100.5C47.7 100 95.3 99 143 100.7C190.7 102.3 238.3 106.7 286 109.3C333.7 112 381.3 113 428.8 112.7C476.3 112.3 523.7 110.7 571.2 108C618.7 105.3 666.3 101.7 714 102.3C761.7 103 809.3 108 857 108.2C904.7 108.3 952.3 103.7 976.2 101.3L1000 99L1000 176L976.2 176C952.3 176 904.7 176 857 176C809.3 176 761.7 176 714 176C666.3 176 618.7 176 571.2 176C523.7 176 476.3 176 428.8 176C381.3 176 333.7 176 286 176C238.3 176 190.7 176 143 176C95.3 176 47.7 176 23.8 176L0 176Z" fill="#ffcab2"></path><path d="M0 136L23.8 136.3C47.7 136.7 95.3 137.3 143 137.3C190.7 137.3 238.3 136.7 286 136.5C333.7 136.3 381.3 136.7 428.8 136.5C476.3 136.3 523.7 135.7 571.2 134.7C618.7 133.7 666.3 132.3 714 131.5C761.7 130.7 809.3 130.3 857 133C904.7 135.7 952.3 141.3 976.2 144.2L1000 147L1000 176L976.2 176C952.3 176 904.7 176 857 176C809.3 176 761.7 176 714 176C666.3 176 618.7 176 571.2 176C523.7 176 476.3 176 428.8 176C381.3 176 333.7 176 286 176C238.3 176 190.7 176 143 176C95.3 176 47.7 176 23.8 176L0 176Z" fill="#fff8f6"></path></svg>